<svg xmlns="http://www.w3.org/2000/svg" viewBox="0 0 1200 600">
<rect width="1200" height="600" fill="#003580"/>
<path d="M473.66,423.83c-13.43-69.59,10.68-142.16,64.21-190.38c-108.82-12.28-208.57,63.78-223.47,169.65 C298.56,516.48,398.7,609,508.86,590.27C479.91,540.83,470.54,482.02,473.66,423.83z" fill="#FFCC00"/>
<polygon points="659.5,300 688.04,364.71 757.29,370.4 704.89,416.79 720.66,484.71 659.5,448.24 598.34,484.71 614.11,416.79 561.71,370.4 630.96,364.71 " fill="#FFCC00"/>
<rect y="0" width="1200" height="100" fill="#CC0000"/>
<rect y="100" width="1200" height="50" fill="#FFFFFF"/>
<rect y="450" width="1200" height="50" fill="#FFFFFF"/>
<rect y="500" width="1200" height="100" fill="#CC0000"/>
</svg>
